<!DOCTYPE svg PUBLIC "-//W3C//DTD SVG 1.1//EN" "http://www.w3.org/Graphics/SVG/1.1/DTD/svg11.dtd">
<!-- Uploaded to: SVG Repo, www.svgrepo.com, Transformed by: SVG Repo Mixer Tools -->
<svg fill="#000000" height="75px" width="75px" version="1.1" id="Capa_1" xmlns="http://www.w3.org/2000/svg" xmlns:xlink="http://www.w3.org/1999/xlink" viewBox="0 0 489.30 489.30" xml:space="preserve" stroke="#000000" stroke-width="0.004893" transform="matrix(1, 0, 0, 1, 0, 0)rotate(180)">
<g id="SVGRepo_bgCarrier" stroke-width="0"/>
<g id="SVGRepo_tracerCarrier" stroke-linecap="round" stroke-linejoin="round"/>
<g id="SVGRepo_iconCarrier"> <g> <g> <path d="M0.05,12.3v222.8c0,6.8,5.5,12.3,12.3,12.3s12.3-5.5,12.3-12.3V24.5h440.2v440.2h-211.9c-6.8,0-12.3,5.5-12.3,12.3 s5.5,12.3,12.3,12.3h224c6.8,0,12.3-5.5,12.3-12.3V12.3c0-6.8-5.5-12.3-12.3-12.3H12.35C5.55,0,0.05,5.5,0.05,12.3z"/> <path d="M0.05,476.9c0,6.8,5.5,12.3,12.3,12.3h170.3c6.8,0,12.3-5.5,12.3-12.3V306.6c0-6.8-5.5-12.3-12.3-12.3H12.35 c-6.8,0-12.3,5.5-12.3,12.3C0.05,306.6,0.05,476.9,0.05,476.9z M24.55,318.8h145.9v145.9H24.55V318.8z"/> <path d="M231.55,135.9c-6.8,0-12.3,5.5-12.3,12.3v109.5c0,6.8,5.5,12.3,12.3,12.3h109.5c6.8,0,12.3-5.5,12.3-12.3 s-5.5-12.3-12.3-12.3h-79.9l138.7-138.7c4.8-4.8,4.8-12.5,0-17.3s-12.5-4.8-17.3,0l-138.7,138.7v-79.9 C243.85,141.4,238.35,135.9,231.55,135.9z"/> </g> </g> </g>
</svg>